mtllib waist_roll_link_visuals.mtl
v -0.00494268536567688 -0.006201315671205521 0.01974516548216343
v -0.004997627809643745 -0.011001312173902988 0.018999863415956497
v -0.004942706786096096 -0.006201287731528282 0.01825474388897419
v -0.004942706786096096 -0.006201287731528282 0.01825474388897419
v -0.004997627809643745 -0.011001312173902988 0.018999863415956497
v -0.004941792692989111 -0.011001287028193474 0.018254652619361877
v -0.004942706786096096 -0.006201287731528282 0.01825474388897419
v -0.004941792692989111 -0.011001287028193474 0.018254652619361877
v -0.004503417760133743 -0.006201176904141903 0.016830530017614365
v -0.004502503667026758 -0.011001176200807095 0.016830438748002052
v -0.004503417760133743 -0.006201176904141903 0.016830530017614365
v -0.004502503667026758 -0.011001176200807095 0.016830438748002052
v -0.0036638507153838873 -0.006200993899255991 0.01559907291084528
v -0.0036629363894462585 -0.01100099366158247 0.015598981641232967
v -0.0036638507153838873 -0.006200993899255991 0.01559907291084528
v -0.0036629363894462585 -0.01100099366158247 0.015598981641232967
v -0.002498605288565159 -0.0062007540836930275 0.014669791795313358
v -0.00249769096262753 -0.01100075338035822 0.01466970145702362
v -0.002498605288565159 -0.0062007540836930275 0.014669791795313358
v -0.00249769096262753 -0.01100075338035822 0.01466970145702362
v -0.001111217774450779 -0.006200479343533516 0.014125259593129158
v -0.0011103034485131502 -0.011000479571521282 0.014125168323516846
v -0.001111217774450779 -0.006200479343533516 0.014125259593129158
v -0.0011103034485131502 -0.011000479571521282 0.014125168323516846
v 1.3849220295014675e-06 -0.006200265139341354 0.013999882154166698
v 1.3849220295014675e-06 -0.006200265139341354 0.013999882154166698
v -0.0011103034485131502 -0.011000479571521282 0.014125168323516846
v 0.0003759498067665845 -0.011000193655490875 0.01401376724243164
v 1.3849220295014675e-06 -0.006200265139341354 0.013999882154166698
v 0.0003759498067665845 -0.011000193655490875 0.01401376724243164
v 0.0003750354517251253 -0.006200194358825684 0.014013857580721378
v 0.0003750354517251253 -0.006200194358825684 0.014013857580721378
v 0.0003759498067665845 -0.011000193655490875 0.01401376724243164
v 0.0018280952936038375 -0.006199923809617758 0.014345487579703331
v 0.0018290096195414662 -0.010999923571944237 0.014345396310091019
v 0.0018280952936038375 -0.006199923809617758 0.014345487579703331
v 0.0018290096195414662 -0.010999923571944237 0.014345396310091019
v 0.003118850290775299 -0.0061996919102966785 0.015090679749846458
v 0.003119764616712928 -0.010999691672623158 0.01509058941155672
v 0.003118850290775299 -0.0061996919102966785 0.015090679749846458
v 0.003119764616712928 -0.010999691672623158 0.01509058941155672
v 0.004132610745728016 -0.006199519615620375 0.016183221712708473
v 0.004133525304496288 -0.010999519377946854 0.01618313044309616
v 0.004132610745728016 -0.006199519615620375 0.016183221712708473
v 0.004133525304496288 -0.010999519377946854 0.01618313044309616
v 0.004779300652444363 -0.00619942182675004 0.017526037991046906
v 0.004780215211212635 -0.010999421589076519 0.017525946721434593
v 0.004779300652444363 -0.00619942182675004 0.017526037991046906
v 0.004780215211212635 -0.010999421589076519 0.017525946721434593
v 0.005001457408070564 -0.0061994073912501335 0.01899980939924717
v 0.005002371966838837 -0.010999406687915325 0.018999718129634857
v 0.005001457408070564 -0.0061994073912501335 0.01899980939924717
v 0.005002371966838837 -0.010999406687915325 0.018999718129634857
v 0.004779343958944082 -0.006199477706104517 0.02047358825802803
v 0.004780258052051067 -0.010999477468430996 0.020473496988415718
v 0.004779343958944082 -0.006199477706104517 0.02047358825802803
v 0.004780258052051067 -0.010999477468430996 0.020473496988415718
v 0.004132693167775869 -0.006199626252055168 0.021816421300172806
v 0.0041336072608828545 -0.01099962554872036 0.021816330030560493
v 0.004132693167775869 -0.006199626252055168 0.021816421300172806
v 0.0041336072608828545 -0.01099962554872036 0.021816330030560493
v 0.0031189643777906895 -0.006199839990586042 0.022908994928002357
v 0.003119878703728318 -0.010999839752912521 0.022908903658390045
v 0.0031189643777906895 -0.006199839990586042 0.022908994928002357
v 0.003119878703728318 -0.010999839752912521 0.022908903658390045
v 0.0018282310338690877 -0.006200100295245647 0.02365422435104847
v 0.0018291453598067164 -0.011000099591910839 0.023654133081436157
v 0.0018282310338690877 -0.006200100295245647 0.02365422435104847
v 0.0018291453598067164 -0.011000099591910839 0.023654133081436157
v 0.00037518085446208715 -0.006200382951647043 0.02398589625954628
v 0.00037609520950354636 -0.011000382713973522 0.023985804989933968
v 0.00037518085446208715 -0.006200382951647043 0.02398589625954628
v 0.00037609520950354636 -0.011000382713973522 0.023985804989933968
v -0.0011110756313428283 -0.006200664211064577 0.023874538019299507
v -0.0011101613054051995 -0.011000663973391056 0.023874446749687195
v -0.0011110756313428283 -0.006200664211064577 0.023874538019299507
v -0.0011101613054051995 -0.011000663973391056 0.023874446749687195
v -0.002498478861525655 -0.00620091799646616 0.023330045863986015
v -0.002497564535588026 -0.011000918224453926 0.023329954594373703
v -0.002498478861525655 -0.00620091799646616 0.023330045863986015
v -0.002497564535588026 -0.011000918224453926 0.023329954594373703
v -0.0036637515295296907 -0.006201122421771288 0.02240079827606678
v -0.003662837203592062 -0.011001122184097767 0.022400707006454468
v -0.0036637515295296907 -0.006201122421771288 0.02240079827606678
v -0.003662837203592062 -0.011001122184097767 0.022400707006454468
v -0.004503354430198669 -0.006201259326189756 0.02116936631500721
v -0.004502440337091684 -0.011001259088516235 0.021169275045394897
v -0.004503354430198669 -0.006201259326189756 0.02116936631500721
v -0.004502440337091684 -0.011001259088516235 0.021169275045394897
v -0.00494268536567688 -0.006201315671205521 0.01974516548216343
v -0.0049417708069086075 -0.011001315899193287 0.019745074212551117
v -0.00494268536567688 -0.006201315671205521 0.01974516548216343
v -0.0049417708069086075 -0.011001315899193287 0.019745074212551117
v -0.004997627809643745 -0.011001312173902988 0.018999863415956497
v 0.009998180903494358 0.011001545004546642 0.019000062718987465
v 0.00999909546226263 0.006201545242220163 0.018999971449375153
v 0.009997918270528316 0.011001885868608952 0.0010000625625252724
v 0.009998942725360394 0.006201744079589844 0.008499971590936184
v 0.010001457296311855 -0.006198455113917589 0.01899973675608635
v 0.010002371855080128 -0.010998454876244068 0.018999645486474037
v 0.010001304559409618 -0.006198256276547909 0.00849973689764738
v 0.010002109222114086 -0.010998114012181759 0.000999645795673132
v 0.009999698959290981 0.00201107538305223 0.0056534577161073685
v 0.009999412111938 0.003461893880739808 0.004901739303022623
v 0.00999916810542345 0.004656100645661354 0.003786470042541623
v 0.009998985566198826 0.005505127366632223 0.002390364883467555
v 0.00999887939542532 0.005946004763245583 0.0008169668144546449
v 0.009998856112360954 0.006001904606819153 -3.230850609270419e-08
v 0.009997927583754063 0.010790564119815826 -0.0011459349188953638
v 0.00999885518103838 0.005946035962551832 -0.0008170332876034081
v 0.009998016990721226 0.010164639912545681 -0.003209470771253109
v 0.009998916648328304 0.005505218170583248 -0.002390448236837983
v 0.009998182766139507 0.009148167446255684 -0.005111244507133961
v 0.00999841932207346 0.00778020778670907 -0.0067781731486320496
v 0.009999057278037071 0.004656244069337845 -0.0037865852937102318
v 0.009998716413974762 0.006113331764936447 -0.00814619567245245
v 0.009999268688261509 0.003462079679593444 -0.004901899956166744
v 0.009999063797295094 0.004211596213281155 -0.009162741713225842
v 0.009999534115195274 0.0020112895872443914 -0.005653673317283392
v 0.009999447502195835 0.002148083643987775 -0.00978874322026968
v 0.0099998340010643 0.0004114727198611945 -0.005986150354146957
v 0.009999853558838367 2.0942597984685563e-06 -0.010000145994126797
v 0.010000265203416348 -0.0021439031697809696 -0.009788824245333672
v 0.010000145994126797 -0.0012187198735773563 -0.0058746738359332085
v 0.010000667534768581 -0.004207439720630646 -0.0091629009693861
v 0.010000447742640972 -0.0027583844494074583 -0.0053275092504918575
v 0.0100010447204113 -0.0061092134565114975 -0.008146427571773529
v 0.010000715963542461 -0.004093330819159746 -0.004385238979011774
v 0.010001381859183311 -0.007776141166687012 -0.006778467912226915
v 0.010000843554735184 -0.004093497060239315 0.004384792409837246
v 0.010000603273510933 -0.002758586313575506 0.005327113438397646
v 0.010000317357480526 -0.0012189424596726894 0.005874335765838623
v 0.010000009089708328 0.0004112459719181061 0.005985874682664871
v 0.010001666843891144 -0.009144164621829987 -0.005111590959131718
v 0.010000930167734623 -0.005124552175402641 -0.0031177466735243797
v 0.010001888498663902 -0.010160708799958229 -0.0032098558731377125
v 0.010001076385378838 -0.005775568075478077 -0.0016190360765904188
v 0.01000203751027584 -0.010786711238324642 -0.0011463436530902982
v 0.010001142509281635 -0.005998095031827688 -2.596130741494562e-07
v 0.010001123882830143 -0.0057756295427680016 0.0016185254789888859
v 0.010001021437346935 -0.0051246704533696175 0.003117260755971074
v -0.009997627697885036 -0.01100226491689682 0.018999937921762466
v -0.009998541325330734 -0.006202264688909054 0.01900002732872963
v -0.009997890330851078 -0.011001923121511936 0.0009999374160543084
v -0.009998694993555546 -0.006202065851539373 0.008500028401613235
v -0.010000904090702534 0.006197735201567411 0.019000262022018433
v -0.010001817718148232 0.01099773496389389 0.019000353291630745
v -0.01000105682760477 0.006197934038937092 0.008500263094902039
v -0.010002080351114273 0.0109980758279562 0.001000354066491127
v -0.009999681264162064 -0.0012227521510794759 0.005874627269804478
v -0.009999396279454231 -0.002762395888566971 0.005327404942363501
v -0.009998857043683529 -0.006001904606819153 3.192853270661544e-08
v -0.009997961111366749 -0.010790521278977394 -0.0011460521491244435
v -0.009998923167586327 -0.005779378116130829 -0.0016187445726245642
v -0.00999915599822998 -0.00409730663523078 0.004385083913803101
v -0.009998978115618229 -0.005128480028361082 0.0031175522599369287
v -0.009998875670135021 -0.005779439117759466 0.0016188169829547405
v -0.009999551810324192 -0.0027621942572295666 -0.005327217746526003
v -0.009999332018196583 -0.00421124929562211 -0.009162609465420246
v -0.009998954832553864 -0.006113023031502962 -0.0081461351364851
v -0.009999283589422703 -0.004097140394151211 -0.004384947475045919
v -0.009998616762459278 -0.007779951207339764 -0.006778176408261061
v -0.009999068453907967 -0.005128362216055393 -0.003117455169558525
v -0.009998331777751446 -0.009147973731160164 -0.005111299455165863
v -0.009998111054301262 -0.010164518840610981 -0.003209564369171858
v -0.010000831447541714 0.0046522910706698895 0.0037867615465074778
v -0.010000587441027164 0.0034580843057483435 0.004902030806988478
v -0.010000299662351608 0.0020072658080607653 0.005653749220073223
v -0.009999990463256836 0.0004074362514074892 0.005986166186630726
v -0.009999733418226242 -0.002147712977603078 -0.009788532741367817
v -0.009999852627515793 -0.0012225296813994646 -0.005874382331967354
v -0.010000145994126797 -1.7154743545688689e-06 -0.009999854490160942
v -0.010000165551900864 0.00040766297024674714 -0.005985858850181103
v -0.010000551119446754 0.0021442740689963102 -0.009788451716303825
v -0.01000046543776989 0.002007479779422283 -0.005653381813317537
v -0.010000934824347496 0.00420778663828969 -0.009162450209259987
v -0.010001013055443764 0.0055013177916407585 0.0023906563874334097
v -0.010001120157539845 0.005942195188254118 0.0008172583184204996
v -0.010001283138990402 0.006109521724283695 -0.008145904168486595
v -0.01000072993338108 0.0034582698717713356 -0.00490160845220089
v -0.010001580230891705 0.007776398211717606 -0.006777881644666195
v -0.010000941343605518 0.00465243449434638 -0.003786293789744377
v -0.010001816786825657 0.009144357405602932 -0.005110953003168106
v -0.01000108290463686 0.005501408129930496 -0.0023901567328721285
v -0.010001982562243938 0.010160830803215504 -0.0032091792672872543
v -0.010001144371926785 0.00594222592189908 -0.0008167417836375535
v -0.010002071969211102 0.010786755010485649 -0.0011456434149295092
v -0.010001142509281635 0.005998095031827688 2.5923310431608115e-07
v 0.004780258052051067 -0.010999477468430996 0.020473496988415718
v 0.005002371966838837 -0.010999406687915325 0.018999718129634857
v 0.010002371855080128 -0.010998454876244068 0.018999645486474037
v 0.004780215211212635 -0.010999421589076519 0.017525946721434593
v 0.010002109222114086 -0.010998114012181759 0.000999645795673132
v 0.004133525304496288 -0.010999519377946854 0.01618313044309616
v 0.003119764616712928 -0.010999691672623158 0.01509058941155672
v 0.00037609520950354636 -0.011000382713973522 0.023985804989933968
v -0.0010427676606923342 -0.011000746861100197 0.02894502505660057
v -0.0011101613054051995 -0.011000663973391056 0.023874446749687195
v -0.0030876589007675648 -0.01100112870335579 0.028510401025414467
v -0.002497564535588026 -0.011000918224453926 0.023329954594373703
v -0.004997501149773598 -0.01100147608667612 0.02766011841595173
v -0.003662837203592062 -0.011001122184097767 0.022400707006454468
v 0.0018290096195414662 -0.010999923571944237 0.014345396310091019
v 0.0003759498067665845 -0.011000193655490875 0.01401376724243164
v -0.009997890330851078 -0.011001923121511936 0.0009999374160543084
v -0.0011103034485131502 -0.011000479571521282 0.014125168323516846
v -0.00249769096262753 -0.01100075338035822 0.01466970145702362
v -0.0036629363894462585 -0.01100099366158247 0.015598981641232967
v -0.004502503667026758 -0.011001176200807095 0.016830438748002052
v -0.009997627697885036 -0.01100226491689682 0.018999937921762466
v 0.009783877991139889 -0.01099853590130806 0.021078765392303467
v 0.009137886576354504 -0.010998696088790894 0.02306702360510826
v 0.0041336072608828545 -0.01099962554872036 0.021816330030560493
v 0.008092627860605717 -0.010998929850757122 0.024877525866031647
v 0.003119878703728318 -0.010999839752912521 0.022908903658390045
v -0.006688825320452452 -0.011001775041222572 0.026431336998939514
v -0.008087711408734322 -0.011002011597156525 0.0248777624219656
v -0.004502440337091684 -0.011001259088516235 0.021169275045394897
v -0.009133022278547287 -0.011002176441252232 0.0230672899633646
v -0.0049417708069086075 -0.011001315899193287 0.019745074212551117
v -0.009779073297977448 -0.011002262122929096 0.0210790503770113
v -0.004997627809643745 -0.011001312173902988 0.018999863415956497
v -0.004941792692989111 -0.011001287028193474 0.018254652619361877
v 0.006693787407130003 -0.01099922601133585 0.026431141421198845
v 0.005002498161047697 -0.010999571532011032 0.02765997312963009
v 0.0018291453598067164 -0.011000099591910839 0.023654133081436157
v 0.0030926810577511787 -0.010999951511621475 0.028510311618447304
v 0.0010478019248694181 -0.011000349186360836 0.028944995254278183
v -0.004506630823016167 0.010998740792274475 0.021169692277908325
v -0.004945961758494377 0.010998683981597424 0.019745491445064545
v -0.009783264249563217 0.01099773682653904 0.021079467609524727
v -0.010001817718148232 0.01099773496389389 0.019000353291630745
v -0.004945983178913593 0.010998711921274662 0.018255069851875305
v -0.010002080351114273 0.0109980758279562 0.001000354066491127
v -0.0045066941529512405 0.010998822748661041 0.01683085598051548
v -0.0036671271082013845 0.01099900621920824 0.01559939794242382
v -0.002501881681382656 0.010999245569109917 0.014670117758214474
v -0.0011144941672682762 0.010999520309269428 0.014125584624707699
v 0.009997918270528316 0.011001885868608952 0.0010000625625252724
v 0.0003717590880114585 0.01099980529397726 0.014014183543622494
v 0.001824819017201662 0.011000076308846474 0.014345812611281872
v -0.009137213230133057 0.010997822508215904 0.02306770719587803
v -0.008091902360320091 0.010997987352311611 0.024878179654479027
v -0.003667027922347188 0.010998877696692944 0.022401124238967896
v -0.006693015806376934 0.010998224839568138 0.026431754231452942
v -0.002501755254343152 0.010999081656336784 0.02333037182688713
v -0.005001692101359367 0.01099852379411459 0.027660535648465157
v -0.0011143519077450037 0.010999335907399654 0.023874863982200623
v 0.003115573897957802 0.011000308208167553 0.015091005712747574
v 0.004129334352910519 0.011000480502843857 0.01618354767560959
v 0.009998180903494358 0.011001545004546642 0.019000062718987465
v -0.0030918496195226908 0.010998871177434921 0.028510818257927895
v -0.0010469582630321383 0.010999252088367939 0.028945442289114
v 0.00037190449074842036 0.010999616235494614 0.023986222222447395
v 0.0010436112061142921 0.010999650694429874 0.02894541062414646
v 0.0018249547574669123 0.010999899357557297 0.023654550313949585
v 0.004129416774958372 0.011000373400747776 0.02181674726307392
v 0.009133695624768734 0.011001302860677242 0.02306744083762169
v 0.004776067566126585 0.011000522412359715 0.020473914220929146
v 0.009779687970876694 0.01100146397948265 0.021079182624816895
v 0.004998181480914354 0.01100059226155281 0.019000135362148285
v 0.004776024259626865 0.011000578291714191 0.01752636395394802
v 0.0030884903389960527 0.011000048369169235 0.028510726988315582
v 0.004998307675123215 0.011000428348779678 0.027660388499498367
v 0.003115687984973192 0.011000160127878189 0.022909320890903473
v 0.006689596455544233 0.01100077386945486 0.026431558653712273
v 0.008088436909019947 0.011001070030033588 0.024877943098545074
v 0.010001142509281635 -0.005998095031827688 -2.596130741494562e-07
v -0.009998857043683529 -0.006001904606819153 3.192853270661544e-08
v 0.010001123882830143 -0.0057756295427680016 0.0016185254789888859
v -0.009998875670135021 -0.005779439117759466 0.0016188169829547405
v 0.010001123882830143 -0.0057756295427680016 0.0016185254789888859
v -0.009998875670135021 -0.005779439117759466 0.0016188169829547405
v 0.010001021437346935 -0.0051246704533696175 0.003117260755971074
v -0.009998978115618229 -0.005128480028361082 0.0031175522599369287
v 0.010001021437346935 -0.0051246704533696175 0.003117260755971074
v -0.009998978115618229 -0.005128480028361082 0.0031175522599369287
v 0.010000843554735184 -0.004093497060239315 0.004384792409837246
v -0.00999915599822998 -0.00409730663523078 0.004385083913803101
v 0.010000843554735184 -0.004093497060239315 0.004384792409837246
v -0.00999915599822998 -0.00409730663523078 0.004385083913803101
v 0.010000603273510933 -0.002758586313575506 0.005327113438397646
v -0.009999396279454231 -0.002762395888566971 0.005327404942363501
v 0.010000603273510933 -0.002758586313575506 0.005327113438397646
v -0.009999396279454231 -0.002762395888566971 0.005327404942363501
v 0.010000317357480526 -0.0012189424596726894 0.005874335765838623
v -0.009999681264162064 -0.0012227521510794759 0.005874627269804478
v 0.010000317357480526 -0.0012189424596726894 0.005874335765838623
v -0.009999681264162064 -0.0012227521510794759 0.005874627269804478
v 0.010000009089708328 0.0004112459719181061 0.005985874682664871
v -0.009999990463256836 0.0004074362514074892 0.005986166186630726
v 0.010000009089708328 0.0004112459719181061 0.005985874682664871
v -0.009999990463256836 0.0004074362514074892 0.005986166186630726
v 0.009999698959290981 0.00201107538305223 0.0056534577161073685
v -0.010000299662351608 0.0020072658080607653 0.005653749220073223
v 0.009999698959290981 0.00201107538305223 0.0056534577161073685
v -0.010000299662351608 0.0020072658080607653 0.005653749220073223
v 0.009999412111938 0.003461893880739808 0.004901739303022623
v -0.010000587441027164 0.0034580843057483435 0.004902030806988478
v 0.009999412111938 0.003461893880739808 0.004901739303022623
v -0.010000587441027164 0.0034580843057483435 0.004902030806988478
v 0.00999916810542345 0.004656100645661354 0.003786470042541623
v -0.010000831447541714 0.0046522910706698895 0.0037867615465074778
v 0.00999916810542345 0.004656100645661354 0.003786470042541623
v -0.010000831447541714 0.0046522910706698895 0.0037867615465074778
v 0.009998985566198826 0.005505127366632223 0.002390364883467555
v -0.010001013055443764 0.0055013177916407585 0.0023906563874334097
v 0.009998985566198826 0.005505127366632223 0.002390364883467555
v -0.010001013055443764 0.0055013177916407585 0.0023906563874334097
v 0.00999887939542532 0.005946004763245583 0.0008169668144546449
v -0.010001120157539845 0.005942195188254118 0.0008172583184204996
v 0.00999887939542532 0.005946004763245583 0.0008169668144546449
v -0.010001120157539845 0.005942195188254118 0.0008172583184204996
v 0.009998856112360954 0.006001904606819153 -3.230850609270419e-08
v -0.010001142509281635 0.005998095031827688 2.5923310431608115e-07
v 0.009998856112360954 0.006001904606819153 -3.230850609270419e-08
v -0.010001142509281635 0.005998095031827688 2.5923310431608115e-07
v 0.00999885518103838 0.005946035962551832 -0.0008170332876034081
v -0.010001144371926785 0.00594222592189908 -0.0008167417836375535
v 0.00999885518103838 0.005946035962551832 -0.0008170332876034081
v -0.010001144371926785 0.00594222592189908 -0.0008167417836375535
v 0.009998916648328304 0.005505218170583248 -0.002390448236837983
v -0.01000108290463686 0.005501408129930496 -0.0023901567328721285
v 0.009998916648328304 0.005505218170583248 -0.002390448236837983
v -0.01000108290463686 0.005501408129930496 -0.0023901567328721285
v 0.009999057278037071 0.004656244069337845 -0.0037865852937102318
v -0.010000941343605518 0.00465243449434638 -0.003786293789744377
v 0.009999057278037071 0.004656244069337845 -0.0037865852937102318
v -0.010000941343605518 0.00465243449434638 -0.003786293789744377
v 0.009999268688261509 0.003462079679593444 -0.004901899956166744
v -0.01000072993338108 0.0034582698717713356 -0.00490160845220089
v 0.009999268688261509 0.003462079679593444 -0.004901899956166744
v -0.01000072993338108 0.0034582698717713356 -0.00490160845220089
v 0.009999534115195274 0.0020112895872443914 -0.005653673317283392
v -0.01000046543776989 0.002007479779422283 -0.005653381813317537
v 0.009999534115195274 0.0020112895872443914 -0.005653673317283392
v -0.01000046543776989 0.002007479779422283 -0.005653381813317537
v 0.0099998340010643 0.0004114727198611945 -0.005986150354146957
v -0.010000165551900864 0.00040766297024674714 -0.005985858850181103
v 0.0099998340010643 0.0004114727198611945 -0.005986150354146957
v -0.010000165551900864 0.00040766297024674714 -0.005985858850181103
v 0.010000145994126797 -0.0012187198735773563 -0.0058746738359332085
v -0.009999852627515793 -0.0012225296813994646 -0.005874382331967354
v 0.010000145994126797 -0.0012187198735773563 -0.0058746738359332085
v -0.009999852627515793 -0.0012225296813994646 -0.005874382331967354
v 0.010000447742640972 -0.0027583844494074583 -0.0053275092504918575
v -0.009999551810324192 -0.0027621942572295666 -0.005327217746526003
v 0.010000447742640972 -0.0027583844494074583 -0.0053275092504918575
v -0.009999551810324192 -0.0027621942572295666 -0.005327217746526003
v 0.010000715963542461 -0.004093330819159746 -0.004385238979011774
v -0.009999283589422703 -0.004097140394151211 -0.004384947475045919
v 0.010000715963542461 -0.004093330819159746 -0.004385238979011774
v -0.009999283589422703 -0.004097140394151211 -0.004384947475045919
v 0.010000930167734623 -0.005124552175402641 -0.0031177466735243797
v -0.009999068453907967 -0.005128362216055393 -0.003117455169558525
v 0.010000930167734623 -0.005124552175402641 -0.0031177466735243797
v -0.009999068453907967 -0.005128362216055393 -0.003117455169558525
v 0.010001076385378838 -0.005775568075478077 -0.0016190360765904188
v -0.009998923167586327 -0.005779378116130829 -0.0016187445726245642
v 0.010001076385378838 -0.005775568075478077 -0.0016190360765904188
v -0.009998923167586327 -0.005779378116130829 -0.0016187445726245642
v 0.010001142509281635 -0.005998095031827688 -2.596130741494562e-07
v -0.009998857043683529 -0.006001904606819153 3.192853270661544e-08
v 0.001825869083404541 0.006199900060892105 0.023654459044337273
v 0.0003728188166860491 0.006199616938829422 0.023986130952835083
v 0.00037190449074842036 0.010999616235494614 0.023986222222447395
v 0.00037190449074842036 0.010999616235494614 0.023986222222447395
v 0.0003728188166860491 0.006199616938829422 0.023986130952835083
v -8.313028843076609e-07 0.006199545692652464 0.024000117555260658
v 0.00037190449074842036 0.010999616235494614 0.023986222222447395
v -8.313028843076609e-07 0.006199545692652464 0.024000117555260658
v -0.0011143519077450037 0.010999335907399654 0.023874863982200623
v -0.0011143519077450037 0.010999335907399654 0.023874863982200623
v -8.313028843076609e-07 0.006199545692652464 0.024000117555260658
v -0.001113437581807375 0.006199336145073175 0.02387477271258831
v -0.0011143519077450037 0.010999335907399654 0.023874863982200623
v -0.001113437581807375 0.006199336145073175 0.02387477271258831
v -0.002501755254343152 0.010999081656336784 0.02333037182688713
v -0.0025008409284055233 0.006199081894010305 0.02333028055727482
v -0.002501755254343152 0.010999081656336784 0.02333037182688713
v -0.0025008409284055233 0.006199081894010305 0.02333028055727482
v -0.003667027922347188 0.010998877696692944 0.022401124238967896
v -0.0036661135964095592 0.006198877468705177 0.022401032969355583
v -0.003667027922347188 0.010998877696692944 0.022401124238967896
v -0.0036661135964095592 0.006198877468705177 0.022401032969355583
v -0.004506630823016167 0.010998740792274475 0.021169692277908325
v -0.004505716729909182 0.006198741029947996 0.021169601008296013
v -0.004506630823016167 0.010998740792274475 0.021169692277908325
v -0.004505716729909182 0.006198741029947996 0.021169601008296013
v -0.004945961758494377 0.010998683981597424 0.019745491445064545
v -0.004945047199726105 0.006198684219270945 0.019745400175452232
v -0.004945961758494377 0.010998683981597424 0.019745491445064545
v -0.004945047199726105 0.006198684219270945 0.019745400175452232
v -0.004945983178913593 0.010998711921274662 0.018255069851875305
v -0.004945069085806608 0.00619871262460947 0.018254978582262993
v -0.004945983178913593 0.010998711921274662 0.018255069851875305
v -0.004945069085806608 0.00619871262460947 0.018254978582262993
v -0.0045066941529512405 0.010998822748661041 0.01683085598051548
v -0.0045057800598442554 0.006198822986334562 0.016830764710903168
v -0.0045066941529512405 0.010998822748661041 0.01683085598051548
v -0.0045057800598442554 0.006198822986334562 0.016830764710903168
v -0.0036671271082013845 0.01099900621920824 0.01559939794242382
v -0.003666212782263756 0.0061990064568817616 0.015599307604134083
v -0.0036671271082013845 0.01099900621920824 0.01559939794242382
v -0.003666212782263756 0.0061990064568817616 0.015599307604134083
v -0.002501881681382656 0.010999245569109917 0.014670117758214474
v -0.0025009673554450274 0.006199245806783438 0.014670027419924736
v -0.002501881681382656 0.010999245569109917 0.014670117758214474
v -0.0025009673554450274 0.006199245806783438 0.014670027419924736
v -0.0011144941672682762 0.010999520309269428 0.014125584624707699
v -0.0011135797249153256 0.006199520546942949 0.014125494286417961
v -0.0011144941672682762 0.010999520309269428 0.014125584624707699
v -0.0011135797249153256 0.006199520546942949 0.014125494286417961
v 0.0003717590880114585 0.01099980529397726 0.014014183543622494
v 0.0003726734430529177 0.006199805997312069 0.014014093205332756
v 0.0003717590880114585 0.01099980529397726 0.014014183543622494
v 0.0003726734430529177 0.006199805997312069 0.014014093205332756
v 0.001824819017201662 0.011000076308846474 0.014345812611281872
v 0.0018257333431392908 0.006200076546519995 0.014345722272992134
v 0.001824819017201662 0.011000076308846474 0.014345812611281872
v 0.0018257333431392908 0.006200076546519995 0.014345722272992134
v 0.003115573897957802 0.011000308208167553 0.015091005712747574
v 0.0031164882238954306 0.006200307980179787 0.015090915374457836
v 0.003115573897957802 0.011000308208167553 0.015091005712747574
v 0.0031164882238954306 0.006200307980179787 0.015090915374457836
v 0.004129334352910519 0.011000480502843857 0.01618354767560959
v 0.004130248911678791 0.0062004802748560905 0.016183456405997276
v 0.004129334352910519 0.011000480502843857 0.01618354767560959
v 0.004130248911678791 0.0062004802748560905 0.016183456405997276
v 0.004776024259626865 0.011000578291714191 0.01752636395394802
v 0.004776938818395138 0.006200578063726425 0.01752627268433571
v 0.004776024259626865 0.011000578291714191 0.01752636395394802
v 0.004776938818395138 0.006200578063726425 0.01752627268433571
v 0.004998181480914354 0.01100059226155281 0.019000135362148285
v 0.004999095574021339 0.006200592499226332 0.019000044092535973
v 0.004998181480914354 0.01100059226155281 0.019000135362148285
v 0.004999095574021339 0.006200592499226332 0.019000044092535973
v 0.004776067566126585 0.011000522412359715 0.020473914220929146
v 0.00477698165923357 0.0062005226500332355 0.020473822951316833
v 0.004776067566126585 0.011000522412359715 0.020473914220929146
v 0.00477698165923357 0.0062005226500332355 0.020473822951316833
v 0.004129416774958372 0.011000373400747776 0.02181674726307392
v 0.004130330868065357 0.006200373638421297 0.02181665599346161
v 0.004129416774958372 0.011000373400747776 0.02181674726307392
v 0.004130330868065357 0.006200373638421297 0.02181665599346161
v 0.003115687984973192 0.011000160127878189 0.022909320890903473
v 0.003116602310910821 0.006200159899890423 0.02290922962129116
v 0.003115687984973192 0.011000160127878189 0.022909320890903473
v 0.003116602310910821 0.006200159899890423 0.02290922962129116
v 0.0018249547574669123 0.010999899357557297 0.023654550313949585
v 0.001825869083404541 0.006199900060892105 0.023654459044337273
v 0.0018249547574669123 0.010999899357557297 0.023654550313949585
v -0.0036638507153838873 -0.006200993899255991 0.01559907291084528
v -0.002498605288565159 -0.0062007540836930275 0.014669791795313358
v -0.009998694993555546 -0.006202065851539373 0.008500028401613235
v -0.0011110756313428283 -0.006200664211064577 0.023874538019299507
v -0.001043681986629963 -0.006200747564435005 0.028945116326212883
v 0.00037518085446208715 -0.006200382951647043 0.02398589625954628
v 0.0010468875989317894 -0.00620034895837307 0.028945084661245346
v 0.0018282310338690877 -0.006200100295245647 0.02365422435104847
v -0.004503354430198669 -0.006201259326189756 0.02116936631500721
v -0.00494268536567688 -0.006201315671205521 0.01974516548216343
v -0.00977998785674572 -0.006202262360602617 0.02107914164662361
v -0.009998541325330734 -0.006202264688909054 0.01900002732872963
v -0.004942706786096096 -0.006201287731528282 0.01825474388897419
v -0.004503417760133743 -0.006201176904141903 0.016830530017614365
v -0.001111217774450779 -0.006200479343533516 0.014125259593129158
v 1.3849220295014675e-06 -0.006200265139341354 0.013999882154166698
v 0.010001304559409618 -0.006198256276547909 0.00849973689764738
v 0.0003750354517251253 -0.006200194358825684 0.014013857580721378
v 0.0018280952936038375 -0.006199923809617758 0.014345487579703331
v 0.003118850290775299 -0.0061996919102966785 0.015090679749846458
v 0.004132610745728016 -0.006199519615620375 0.016183221712708473
v 0.010001457296311855 -0.006198455113917589 0.01899973675608635
v -0.00913393683731556 -0.00620217714458704 0.023067381232976913
v -0.008088625967502594 -0.006202012300491333 0.02487785369157791
v -0.0036637515295296907 -0.006201122421771288 0.02240079827606678
v -0.006689739413559437 -0.006201775278896093 0.026431428268551826
v -0.002498478861525655 -0.00620091799646616 0.023330045863986015
v -0.00499841570854187 -0.006201476324349642 0.02766020968556404
v -0.0030885732267051935 -0.006201128475368023 0.02851049229502678
v 0.004132693167775869 -0.006199626252055168 0.021816421300172806
v 0.009136972017586231 -0.006198696792125702 0.023067114874720573
v 0.004779343958944082 -0.006199477706104517 0.02047358825802803
v 0.009782964363694191 -0.006198536138981581 0.02107885666191578
v 0.005001457408070564 -0.0061994073912501335 0.01899980939924717
v 0.004779300652444363 -0.00619942182675004 0.017526037991046906
v 0.00309176673181355 -0.006199951283633709 0.028510401025414467
v 0.005001584067940712 -0.006199571304023266 0.027660062536597252
v 0.0031189643777906895 -0.006199839990586042 0.022908994928002357
v 0.006692872848361731 -0.006199226249009371 0.026431232690811157
v 0.008091713301837444 -0.006198930088430643 0.02487761713564396
v 0.0031164882238954306 0.006200307980179787 0.015090915374457836
v 0.0018257333431392908 0.006200076546519995 0.014345722272992134
v 0.009998942725360394 0.006201744079589844 0.008499971590936184
v 0.0003726734430529177 0.006199805997312069 0.014014093205332756
v -0.01000105682760477 0.006197934038937092 0.008500263094902039
v -0.0011135797249153256 0.006199520546942949 0.014125494286417961
v -0.0025009673554450274 0.006199245806783438 0.014670027419924736
v 0.00999909546226263 0.006201545242220163 0.018999971449375153
v 0.009780601598322392 0.006201464217156172 0.021079091355204582
v 0.00477698165923357 0.0062005226500332355 0.020473822951316833
v 0.009134610183537006 0.006201303564012051 0.023067349568009377
v 0.004130330868065357 0.006200373638421297 0.02181665599346161
v 0.00808935146778822 0.006201069802045822 0.024877851828932762
v 0.003116602310910821 0.006200159899890423 0.02290922962129116
v 0.004999095574021339 0.006200592499226332 0.019000044092535973
v 0.004776938818395138 0.006200578063726425 0.01752627268433571
v 0.004130248911678791 0.0062004802748560905 0.016183456405997276
v -0.003666212782263756 0.0061990064568817616 0.015599307604134083
v -0.0045057800598442554 0.006198822986334562 0.016830764710903168
v -0.010000904090702534 0.006197735201567411 0.019000262022018433
v -0.004945069085806608 0.00619871262460947 0.018254978582262993
v -0.009782349690794945 0.006197737529873848 0.021079376339912415
v -0.004945047199726105 0.006198684219270945 0.019745400175452232
v -0.009136298671364784 0.006197823211550713 0.023067615926265717
v -0.004505716729909182 0.006198741029947996 0.021169601008296013
v -0.008090987801551819 0.0061979880556464195 0.024878088384866714
v -0.0036661135964095592 0.006198877468705177 0.022401032969355583
v 0.006690511014312506 0.006200774107128382 0.02643146738409996
v 0.0049992217682302 0.006200428586453199 0.027660299092531204
v 0.001825869083404541 0.006199900060892105 0.023654459044337273
v 0.0030894046649336815 0.006200048606842756 0.02851063758134842
v 0.0003728188166860491 0.006199616938829422 0.023986130952835083
v 0.0010445255320519209 0.0061996509321033955 0.0289453212171793
v -8.313028843076609e-07 0.006199545692652464 0.024000117555260658
v -0.0010460439370945096 0.006199252791702747 0.028945351019501686
v -0.001113437581807375 0.006199336145073175 0.02387477271258831
v -0.003090935293585062 0.006198871415108442 0.028510726988315582
v -0.0025008409284055233 0.006199081894010305 0.02333028055727482
v -0.005000777542591095 0.006198523566126823 0.027660444378852844
v -0.006692101713269949 0.006198225077241659 0.02643166296184063
v -0.01000105682760477 0.006197934038937092 0.008500263094902039
v -0.009998694993555546 -0.006202065851539373 0.008500028401613235
v 0.009998942725360394 0.006201744079589844 0.008499971590936184
v 0.010001304559409618 -0.006198256276547909 0.00849973689764738
v 0.009999853558838367 2.0942597984685563e-06 -0.010000145994126797
v -0.010000145994126797 -1.7154743545688689e-06 -0.009999854490160942
v -0.010000551119446754 0.0021442740689963102 -0.009788451716303825
v 0.009999447502195835 0.002148083643987775 -0.00978874322026968
v 0.009999447502195835 0.002148083643987775 -0.00978874322026968
v -0.010000551119446754 0.0021442740689963102 -0.009788451716303825
v -0.010000934824347496 0.00420778663828969 -0.009162450209259987
v 0.009999063797295094 0.004211596213281155 -0.009162741713225842
v 0.009999063797295094 0.004211596213281155 -0.009162741713225842
v -0.010000934824347496 0.00420778663828969 -0.009162450209259987
v -0.010001283138990402 0.006109521724283695 -0.008145904168486595
v 0.009998716413974762 0.006113331764936447 -0.00814619567245245
v 0.009998716413974762 0.006113331764936447 -0.00814619567245245
v -0.010001283138990402 0.006109521724283695 -0.008145904168486595
v -0.010001580230891705 0.007776398211717606 -0.006777881644666195
v 0.00999841932207346 0.00778020778670907 -0.0067781731486320496
v 0.00999841932207346 0.00778020778670907 -0.0067781731486320496
v -0.010001580230891705 0.007776398211717606 -0.006777881644666195
v -0.010001816786825657 0.009144357405602932 -0.005110953003168106
v 0.009998182766139507 0.009148167446255684 -0.005111244507133961
v 0.009998182766139507 0.009148167446255684 -0.005111244507133961
v -0.010001816786825657 0.009144357405602932 -0.005110953003168106
v -0.010001982562243938 0.010160830803215504 -0.0032091792672872543
v 0.009998016990721226 0.010164639912545681 -0.003209470771253109
v 0.009998016990721226 0.010164639912545681 -0.003209470771253109
v -0.010001982562243938 0.010160830803215504 -0.0032091792672872543
v -0.010002071969211102 0.010786755010485649 -0.0011456434149295092
v 0.009997927583754063 0.010790564119815826 -0.0011459349188953638
v 0.009997927583754063 0.010790564119815826 -0.0011459349188953638
v -0.010002071969211102 0.010786755010485649 -0.0011456434149295092
v -0.010002080351114273 0.0109980758279562 0.001000354066491127
v 0.009997918270528316 0.011001885868608952 0.0010000625625252724
v 0.010002109222114086 -0.010998114012181759 0.000999645795673132
v -0.009997890330851078 -0.011001923121511936 0.0009999374160543084
v -0.009997961111366749 -0.010790521278977394 -0.0011460521491244435
v 0.01000203751027584 -0.010786711238324642 -0.0011463436530902982
v 0.01000203751027584 -0.010786711238324642 -0.0011463436530902982
v -0.009997961111366749 -0.010790521278977394 -0.0011460521491244435
v -0.009998111054301262 -0.010164518840610981 -0.003209564369171858
v 0.010001888498663902 -0.010160708799958229 -0.0032098558731377125
v 0.010001888498663902 -0.010160708799958229 -0.0032098558731377125
v -0.009998111054301262 -0.010164518840610981 -0.003209564369171858
v -0.009998331777751446 -0.009147973731160164 -0.005111299455165863
v 0.010001666843891144 -0.009144164621829987 -0.005111590959131718
v 0.010001666843891144 -0.009144164621829987 -0.005111590959131718
v -0.009998331777751446 -0.009147973731160164 -0.005111299455165863
v -0.009998616762459278 -0.007779951207339764 -0.006778176408261061
v 0.010001381859183311 -0.007776141166687012 -0.006778467912226915
v 0.010001381859183311 -0.007776141166687012 -0.006778467912226915
v -0.009998616762459278 -0.007779951207339764 -0.006778176408261061
v -0.009998954832553864 -0.006113023031502962 -0.0081461351364851
v 0.0100010447204113 -0.0061092134565114975 -0.008146427571773529
v 0.0100010447204113 -0.0061092134565114975 -0.008146427571773529
v -0.009998954832553864 -0.006113023031502962 -0.0081461351364851
v -0.009999332018196583 -0.00421124929562211 -0.009162609465420246
v 0.010000667534768581 -0.004207439720630646 -0.0091629009693861
v 0.010000667534768581 -0.004207439720630646 -0.0091629009693861
v -0.009999332018196583 -0.00421124929562211 -0.009162609465420246
v -0.009999733418226242 -0.002147712977603078 -0.009788532741367817
v 0.010000265203416348 -0.0021439031697809696 -0.009788824245333672
v 0.010000265203416348 -0.0021439031697809696 -0.009788824245333672
v -0.009999733418226242 -0.002147712977603078 -0.009788532741367817
v -0.010000145994126797 -1.7154743545688689e-06 -0.009999854490160942
v 0.009999853558838367 2.0942597984685563e-06 -0.010000145994126797
v -0.009998541325330734 -0.006202264688909054 0.01900002732872963
v -0.009997627697885036 -0.01100226491689682 0.018999937921762466
v -0.009779073297977448 -0.011002262122929096 0.0210790503770113
v -0.00977998785674572 -0.006202262360602617 0.02107914164662361
v -0.00977998785674572 -0.006202262360602617 0.02107914164662361
v -0.009779073297977448 -0.011002262122929096 0.0210790503770113
v -0.009133022278547287 -0.011002176441252232 0.0230672899633646
v -0.00913393683731556 -0.00620217714458704 0.023067381232976913
v -0.00913393683731556 -0.00620217714458704 0.023067381232976913
v -0.009133022278547287 -0.011002176441252232 0.0230672899633646
v -0.008087711408734322 -0.011002011597156525 0.0248777624219656
v -0.008088625967502594 -0.006202012300491333 0.02487785369157791
v -0.008088625967502594 -0.006202012300491333 0.02487785369157791
v -0.008087711408734322 -0.011002011597156525 0.0248777624219656
v -0.006688825320452452 -0.011001775041222572 0.026431336998939514
v -0.006689739413559437 -0.006201775278896093 0.026431428268551826
v -0.006689739413559437 -0.006201775278896093 0.026431428268551826
v -0.006688825320452452 -0.011001775041222572 0.026431336998939514
v -0.004997501149773598 -0.01100147608667612 0.02766011841595173
v -0.00499841570854187 -0.006201476324349642 0.02766020968556404
v -0.00499841570854187 -0.006201476324349642 0.02766020968556404
v -0.004997501149773598 -0.01100147608667612 0.02766011841595173
v -0.0030876589007675648 -0.01100112870335579 0.028510401025414467
v -0.0030885732267051935 -0.006201128475368023 0.02851049229502678
v -0.0030885732267051935 -0.006201128475368023 0.02851049229502678
v -0.0030876589007675648 -0.01100112870335579 0.028510401025414467
v -0.0010427676606923342 -0.011000746861100197 0.02894502505660057
v -0.001043681986629963 -0.006200747564435005 0.028945116326212883
v -0.001043681986629963 -0.006200747564435005 0.028945116326212883
v -0.0010427676606923342 -0.011000746861100197 0.02894502505660057
v 0.0010478019248694181 -0.011000349186360836 0.028944995254278183
v 0.0010468875989317894 -0.00620034895837307 0.028945084661245346
v 0.0010468875989317894 -0.00620034895837307 0.028945084661245346
v 0.0010478019248694181 -0.011000349186360836 0.028944995254278183
v 0.0030926810577511787 -0.010999951511621475 0.028510311618447304
v 0.00309176673181355 -0.006199951283633709 0.028510401025414467
v 0.00309176673181355 -0.006199951283633709 0.028510401025414467
v 0.0030926810577511787 -0.010999951511621475 0.028510311618447304
v 0.005002498161047697 -0.010999571532011032 0.02765997312963009
v 0.005001584067940712 -0.006199571304023266 0.027660062536597252
v 0.005001584067940712 -0.006199571304023266 0.027660062536597252
v 0.005002498161047697 -0.010999571532011032 0.02765997312963009
v 0.006693787407130003 -0.01099922601133585 0.026431141421198845
v 0.006692872848361731 -0.006199226249009371 0.026431232690811157
v 0.006692872848361731 -0.006199226249009371 0.026431232690811157
v 0.006693787407130003 -0.01099922601133585 0.026431141421198845
v 0.008092627860605717 -0.010998929850757122 0.024877525866031647
v 0.008091713301837444 -0.006198930088430643 0.02487761713564396
v 0.008091713301837444 -0.006198930088430643 0.02487761713564396
v 0.008092627860605717 -0.010998929850757122 0.024877525866031647
v 0.009137886576354504 -0.010998696088790894 0.02306702360510826
v 0.009136972017586231 -0.006198696792125702 0.023067114874720573
v 0.009136972017586231 -0.006198696792125702 0.023067114874720573
v 0.009137886576354504 -0.010998696088790894 0.02306702360510826
v 0.009783877991139889 -0.01099853590130806 0.021078765392303467
v 0.009782964363694191 -0.006198536138981581 0.02107885666191578
v 0.009782964363694191 -0.006198536138981581 0.02107885666191578
v 0.009783877991139889 -0.01099853590130806 0.021078765392303467
v 0.010002371855080128 -0.010998454876244068 0.018999645486474037
v 0.010001457296311855 -0.006198455113917589 0.01899973675608635
v -0.010001817718148232 0.01099773496389389 0.019000353291630745
v -0.010000904090702534 0.006197735201567411 0.019000262022018433
v -0.009782349690794945 0.006197737529873848 0.021079376339912415
v -0.009783264249563217 0.01099773682653904 0.021079467609524727
v -0.009783264249563217 0.01099773682653904 0.021079467609524727
v -0.009782349690794945 0.006197737529873848 0.021079376339912415
v -0.009136298671364784 0.006197823211550713 0.023067615926265717
v -0.009137213230133057 0.010997822508215904 0.02306770719587803
v -0.009137213230133057 0.010997822508215904 0.02306770719587803
v -0.009136298671364784 0.006197823211550713 0.023067615926265717
v -0.008090987801551819 0.0061979880556464195 0.024878088384866714
v -0.008091902360320091 0.010997987352311611 0.024878179654479027
v -0.008091902360320091 0.010997987352311611 0.024878179654479027
v -0.008090987801551819 0.0061979880556464195 0.024878088384866714
v -0.006692101713269949 0.006198225077241659 0.02643166296184063
v -0.006693015806376934 0.010998224839568138 0.026431754231452942
v -0.006693015806376934 0.010998224839568138 0.026431754231452942
v -0.006692101713269949 0.006198225077241659 0.02643166296184063
v -0.005000777542591095 0.006198523566126823 0.027660444378852844
v -0.005001692101359367 0.01099852379411459 0.027660535648465157
v -0.005001692101359367 0.01099852379411459 0.027660535648465157
v -0.005000777542591095 0.006198523566126823 0.027660444378852844
v -0.003090935293585062 0.006198871415108442 0.028510726988315582
v -0.0030918496195226908 0.010998871177434921 0.028510818257927895
v -0.0030918496195226908 0.010998871177434921 0.028510818257927895
v -0.003090935293585062 0.006198871415108442 0.028510726988315582
v -0.0010460439370945096 0.006199252791702747 0.028945351019501686
v -0.0010469582630321383 0.010999252088367939 0.028945442289114
v -0.0010469582630321383 0.010999252088367939 0.028945442289114
v -0.0010460439370945096 0.006199252791702747 0.028945351019501686
v 0.0010445255320519209 0.0061996509321033955 0.0289453212171793
v 0.0010436112061142921 0.010999650694429874 0.02894541062414646
v 0.0010436112061142921 0.010999650694429874 0.02894541062414646
v 0.0010445255320519209 0.0061996509321033955 0.0289453212171793
v 0.0030894046649336815 0.006200048606842756 0.02851063758134842
v 0.0030884903389960527 0.011000048369169235 0.028510726988315582
v 0.0030884903389960527 0.011000048369169235 0.028510726988315582
v 0.0030894046649336815 0.006200048606842756 0.02851063758134842
v 0.0049992217682302 0.006200428586453199 0.027660299092531204
v 0.004998307675123215 0.011000428348779678 0.027660388499498367
v 0.004998307675123215 0.011000428348779678 0.027660388499498367
v 0.0049992217682302 0.006200428586453199 0.027660299092531204
v 0.006690511014312506 0.006200774107128382 0.02643146738409996
v 0.006689596455544233 0.01100077386945486 0.026431558653712273
v 0.006689596455544233 0.01100077386945486 0.026431558653712273
v 0.006690511014312506 0.006200774107128382 0.02643146738409996
v 0.00808935146778822 0.006201069802045822 0.024877851828932762
v 0.008088436909019947 0.011001070030033588 0.024877943098545074
v 0.008088436909019947 0.011001070030033588 0.024877943098545074
v 0.00808935146778822 0.006201069802045822 0.024877851828932762
v 0.009134610183537006 0.006201303564012051 0.023067349568009377
v 0.009133695624768734 0.011001302860677242 0.02306744083762169
v 0.009133695624768734 0.011001302860677242 0.02306744083762169
v 0.009134610183537006 0.006201303564012051 0.023067349568009377
v 0.009780601598322392 0.006201464217156172 0.021079091355204582
v 0.009779687970876694 0.01100146397948265 0.021079182624816895
v 0.009779687970876694 0.01100146397948265 0.021079182624816895
v 0.009780601598322392 0.006201464217156172 0.021079091355204582
v 0.00999909546226263 0.006201545242220163 0.018999971449375153
v 0.009998180903494358 0.011001545004546642 0.019000062718987465
usemtl material_DefaultMaterial
f 1 2 3
f 4 5 6
f 7 8 9
f 9 8 10
f 11 12 13
f 13 12 14
f 15 16 17
f 17 16 18
f 19 20 21
f 21 20 22
f 23 24 25
f 26 27 28
f 29 30 31
f 32 33 34
f 34 33 35
f 36 37 38
f 38 37 39
f 40 41 42
f 42 41 43
f 44 45 46
f 46 45 47
f 48 49 50
f 50 49 51
f 52 53 54
f 54 53 55
f 56 57 58
f 58 57 59
f 60 61 62
f 62 61 63
f 64 65 66
f 66 65 67
f 68 69 70
f 70 69 71
f 72 73 74
f 74 73 75
f 76 77 78
f 78 77 79
f 80 81 82
f 82 81 83
f 84 85 86
f 86 85 87
f 88 89 90
f 90 89 91
f 92 93 94
f 95 96 97
f 97 96 98
f 99 100 101
f 101 100 102
f 103 104 98
f 98 104 105
f 98 105 97
f 97 105 106
f 106 107 97
f 97 107 108
f 97 108 109
f 109 108 110
f 109 110 111
f 111 110 112
f 111 112 113
f 113 112 114
f 114 112 115
f 114 115 116
f 116 115 117
f 116 117 118
f 118 117 119
f 118 119 120
f 120 119 121
f 120 121 122
f 122 121 123
f 123 121 124
f 123 124 125
f 125 124 126
f 125 126 127
f 127 126 128
f 127 128 129
f 130 131 101
f 101 131 132
f 101 132 98
f 98 132 133
f 98 133 103
f 129 128 134
f 134 128 135
f 134 135 136
f 136 135 137
f 136 137 138
f 138 137 139
f 138 139 102
f 102 139 140
f 102 140 101
f 101 140 141
f 101 141 130
f 142 143 144
f 144 143 145
f 146 147 148
f 148 147 149
f 150 151 145
f 144 152 153
f 153 152 154
f 151 155 145
f 145 155 156
f 145 156 144
f 144 156 157
f 144 157 152
f 158 159 160
f 158 160 161
f 161 160 162
f 161 162 163
f 163 162 164
f 163 164 154
f 154 164 165
f 154 165 153
f 166 167 148
f 148 167 168
f 148 168 145
f 145 168 169
f 145 169 150
f 159 158 170
f 170 158 171
f 170 171 172
f 172 171 173
f 172 173 174
f 174 173 175
f 174 175 176
f 166 148 177
f 177 148 149
f 177 149 178
f 176 175 179
f 179 175 180
f 179 180 181
f 181 180 182
f 181 182 183
f 183 182 184
f 183 184 185
f 185 184 186
f 185 186 187
f 187 186 149
f 149 186 188
f 149 188 178
f 189 190 191
f 191 190 192
f 191 192 193
f 193 192 194
f 193 194 195
f 196 197 198
f 198 197 199
f 198 199 200
f 200 199 201
f 200 201 202
f 195 203 193
f 193 203 204
f 193 204 205
f 205 204 206
f 205 206 207
f 207 208 205
f 205 208 209
f 205 209 210
f 191 211 189
f 189 211 212
f 189 212 213
f 213 212 214
f 213 214 215
f 201 216 202
f 202 216 217
f 202 217 218
f 218 217 219
f 218 219 220
f 220 219 221
f 220 221 222
f 222 221 210
f 222 210 223
f 223 210 209
f 214 224 215
f 215 224 225
f 215 225 226
f 226 225 227
f 226 227 196
f 196 227 228
f 196 228 197
f 229 230 231
f 231 230 232
f 232 230 233
f 232 233 234
f 234 233 235
f 234 235 236
f 236 237 234
f 234 237 238
f 234 238 239
f 239 238 240
f 239 240 241
f 231 242 229
f 229 242 243
f 229 243 244
f 244 243 245
f 244 245 246
f 246 245 247
f 246 247 248
f 241 249 239
f 239 249 250
f 239 250 251
f 247 252 248
f 248 252 253
f 248 253 254
f 254 253 255
f 254 255 256
f 257 258 259
f 259 258 260
f 259 260 261
f 261 260 251
f 261 251 262
f 262 251 250
f 255 263 256
f 256 263 264
f 256 264 265
f 265 264 266
f 265 266 257
f 257 266 267
f 257 267 258
f 268 269 270
f 270 269 271
f 272 273 274
f 274 273 275
f 276 277 278
f 278 277 279
f 280 281 282
f 282 281 283
f 284 285 286
f 286 285 287
f 288 289 290
f 290 289 291
f 292 293 294
f 294 293 295
f 296 297 298
f 298 297 299
f 300 301 302
f 302 301 303
f 304 305 306
f 306 305 307
f 308 309 310
f 310 309 311
f 312 313 314
f 314 313 315
f 316 317 318
f 318 317 319
f 320 321 322
f 322 321 323
f 324 325 326
f 326 325 327
f 328 329 330
f 330 329 331
f 332 333 334
f 334 333 335
f 336 337 338
f 338 337 339
f 340 341 342
f 342 341 343
f 344 345 346
f 346 345 347
f 348 349 350
f 350 349 351
f 352 353 354
f 354 353 355
f 356 357 358
f 358 357 359
f 360 361 362
f 362 361 363
f 364 365 366
f 367 368 369
f 370 371 372
f 373 374 375
f 376 377 378
f 378 377 379
f 380 381 382
f 382 381 383
f 384 385 386
f 386 385 387
f 388 389 390
f 390 389 391
f 392 393 394
f 394 393 395
f 396 397 398
f 398 397 399
f 400 401 402
f 402 401 403
f 404 405 406
f 406 405 407
f 408 409 410
f 410 409 411
f 412 413 414
f 414 413 415
f 416 417 418
f 418 417 419
f 420 421 422
f 422 421 423
f 424 425 426
f 426 425 427
f 428 429 430
f 430 429 431
f 432 433 434
f 434 433 435
f 436 437 438
f 438 437 439
f 440 441 442
f 442 441 443
f 444 445 446
f 446 445 447
f 448 449 450
f 450 449 451
f 452 364 366
f 453 454 455
f 456 457 458
f 458 457 459
f 458 459 460
f 461 462 463
f 463 462 464
f 464 462 465
f 464 465 455
f 455 465 466
f 455 466 453
f 454 467 455
f 455 467 468
f 455 468 469
f 469 468 470
f 469 470 471
f 471 472 469
f 469 472 473
f 469 473 474
f 463 475 461
f 461 475 476
f 461 476 477
f 477 476 478
f 477 478 479
f 479 478 480
f 479 480 456
f 456 480 481
f 456 481 457
f 482 483 484
f 484 483 485
f 484 485 486
f 486 485 474
f 486 474 487
f 487 474 473
f 459 488 460
f 460 488 489
f 460 489 490
f 490 489 491
f 490 491 482
f 482 491 492
f 482 492 483
f 493 494 495
f 495 494 496
f 495 496 497
f 497 496 498
f 497 498 499
f 500 501 502
f 502 501 503
f 502 503 504
f 504 503 505
f 504 505 506
f 502 507 500
f 500 507 508
f 500 508 495
f 495 508 509
f 495 509 493
f 499 510 497
f 497 510 511
f 497 511 512
f 512 511 513
f 512 513 514
f 514 513 515
f 514 515 516
f 516 515 517
f 516 517 518
f 518 517 519
f 505 520 506
f 506 520 521
f 506 521 522
f 522 521 523
f 522 523 524
f 524 523 525
f 524 525 526
f 526 525 527
f 526 527 528
f 528 527 529
f 528 529 530
f 530 529 531
f 530 531 519
f 519 531 532
f 519 532 518
f 533 534 535
f 535 534 536
f 537 538 539
f 537 539 540
f 541 542 543
f 541 543 544
f 545 546 547
f 545 547 548
f 549 550 551
f 549 551 552
f 553 554 555
f 553 555 556
f 557 558 559
f 557 559 560
f 561 562 563
f 561 563 564
f 565 566 567
f 565 567 568
f 569 570 571
f 569 571 572
f 573 574 575
f 573 575 576
f 577 578 579
f 577 579 580
f 581 582 583
f 581 583 584
f 585 586 587
f 585 587 588
f 589 590 591
f 589 591 592
f 593 594 595
f 593 595 596
f 597 598 599
f 597 599 600
f 601 602 603
f 601 603 604
f 605 606 607
f 605 607 608
f 609 610 611
f 609 611 612
f 613 614 615
f 613 615 616
f 617 618 619
f 617 619 620
f 621 622 623
f 621 623 624
f 625 626 627
f 625 627 628
f 629 630 631
f 629 631 632
f 633 634 635
f 633 635 636
f 637 638 639
f 637 639 640
f 641 642 643
f 641 643 644
f 645 646 647
f 645 647 648
f 649 650 651
f 649 651 652
f 653 654 655
f 653 655 656
f 657 658 659
f 657 659 660
f 661 662 663
f 661 663 664
f 665 666 667
f 665 667 668
f 669 670 671
f 669 671 672
f 673 674 675
f 673 675 676
f 677 678 679
f 677 679 680
f 681 682 683
f 681 683 684
f 685 686 687
f 685 687 688
f 689 690 691
f 689 691 692
f 693 694 695
f 693 695 696
f 697 698 699
f 697 699 700
f 701 702 703
f 701 703 704
f 705 706 707
f 705 707 708
f 709 710 711
f 709 711 712
f 713 714 715
f 713 715 716
f 717 718 719
f 717 719 720
